<?xml version="1.0" standalone="no"?>
<!DOCTYPE svg PUBLIC "-//W3C//DTD SVG 20010904//EN"
 "http://www.w3.org/TR/2001/REC-SVG-20010904/DTD/svg10.dtd">
<svg version="1.0" xmlns="http://www.w3.org/2000/svg"
 width="1920.000000pt" height="1920.000000pt" viewBox="0 0 1920.000000 1920.000000"
 preserveAspectRatio="xMidYMid meet">

<g transform="translate(0.000000,1920.000000) scale(0.100000,-0.100000)"
fill="#ffffff" stroke="none">
<path d="M9624 15518 c-9 -18 -27 -46 -40 -61 -13 -16 -24 -33 -24 -39 0 -6
-6 -19 -14 -27 -8 -9 -37 -59 -64 -111 -27 -52 -61 -115 -75 -140 -13 -25 -32
-61 -42 -80 -10 -19 -22 -42 -27 -50 -5 -8 -19 -38 -32 -65 -13 -28 -31 -57
-39 -64 -9 -7 -19 -26 -22 -42 -4 -16 -11 -32 -17 -35 -5 -3 -18 -25 -29 -48
-10 -22 -33 -66 -50 -96 -30 -52 -99 -180 -154 -282 -64 -121 -77 -146 -104
-193 -15 -27 -47 -86 -70 -130 -23 -44 -58 -107 -76 -140 -44 -78 -78 -141
-99 -185 -10 -19 -22 -42 -27 -50 -5 -8 -19 -33 -30 -55 -12 -22 -34 -62 -50
-90 -16 -27 -40 -72 -54 -100 -14 -27 -39 -72 -55 -100 -16 -27 -34 -61 -40
-75 -7 -14 -19 -36 -27 -50 -7 -14 -23 -43 -34 -65 -11 -22 -33 -62 -49 -90
-37 -66 -72 -130 -100 -185 -12 -25 -28 -52 -35 -60 -7 -8 -16 -26 -20 -39 -4
-12 -17 -38 -29 -56 -12 -18 -39 -66 -60 -106 -21 -41 -50 -96 -66 -124 -16
-27 -37 -66 -47 -85 -10 -20 -45 -85 -78 -144 -105 -189 -154 -280 -179 -331
-41 -82 -115 -215 -136 -245 -11 -16 -20 -33 -20 -40 0 -7 -8 -24 -19 -38 -10
-15 -26 -43 -35 -62 -9 -19 -30 -57 -46 -85 -32 -57 -58 -103 -122 -225 -24
-47 -54 -101 -66 -120 -12 -19 -38 -66 -58 -105 -20 -38 -49 -92 -64 -120 -16
-27 -49 -90 -75 -140 -26 -49 -60 -112 -76 -140 -16 -27 -38 -68 -50 -90 -11
-22 -36 -67 -55 -100 -19 -33 -43 -78 -54 -100 -11 -22 -43 -80 -71 -130 -27
-49 -61 -112 -75 -140 -14 -27 -39 -72 -55 -100 -16 -27 -38 -68 -49 -90 -12
-22 -34 -62 -49 -90 -16 -27 -49 -90 -75 -139 -25 -48 -49 -93 -54 -100 -10
-12 -92 -165 -125 -231 -11 -22 -28 -51 -38 -64 -11 -13 -19 -31 -19 -39 0 -8
-11 -29 -24 -46 -13 -17 -27 -42 -31 -56 -4 -14 -15 -34 -25 -45 -10 -11 -21
-31 -25 -45 -4 -14 -13 -32 -20 -40 -7 -8 -22 -33 -33 -55 -49 -94 -65 -123
-97 -180 -19 -33 -42 -76 -51 -95 -9 -19 -25 -45 -35 -59 -10 -13 -19 -31 -19
-39 0 -8 -11 -29 -24 -46 -13 -17 -27 -42 -31 -56 -4 -14 -13 -32 -20 -40 -7
-8 -33 -53 -57 -100 -25 -47 -57 -105 -71 -130 -14 -25 -38 -67 -52 -95 -14
-27 -39 -72 -54 -100 -16 -27 -41 -72 -55 -100 -14 -27 -48 -90 -76 -140 -28
-49 -60 -108 -71 -130 -11 -22 -33 -62 -49 -90 -16 -27 -39 -70 -51 -95 -12
-25 -30 -56 -40 -69 -11 -13 -19 -32 -19 -41 0 -10 -7 -24 -17 -31 -9 -8 -27
-36 -40 -64 -12 -27 -46 -90 -73 -140 -28 -49 -59 -108 -71 -130 -11 -22 -33
-62 -49 -90 -16 -27 -40 -72 -55 -100 -14 -27 -38 -72 -53 -98 -15 -26 -48
-87 -73 -135 -72 -136 -99 -184 -115 -206 -8 -11 -14 -28 -14 -37 0 -9 -7 -23
-16 -30 -9 -8 -25 -32 -36 -54 -11 -22 -32 -62 -47 -90 -15 -27 -50 -90 -77
-140 -26 -49 -61 -112 -76 -140 -15 -27 -40 -72 -54 -100 -14 -27 -38 -72 -54
-100 -48 -85 -78 -138 -104 -190 -15 -27 -42 -77 -60 -110 -19 -33 -51 -91
-71 -130 -20 -38 -52 -97 -71 -130 -19 -33 -44 -78 -55 -100 -12 -22 -34 -62
-49 -90 -16 -27 -40 -70 -53 -95 -13 -25 -47 -88 -76 -140 -47 -88 -79 -150
-117 -225 -8 -16 -19 -37 -25 -45 -5 -8 -21 -37 -35 -65 -14 -27 -38 -72 -54
-100 -16 -27 -38 -66 -48 -85 -31 -57 -77 -143 -88 -165 -6 -11 -19 -33 -28
-50 -9 -16 -24 -46 -33 -65 -8 -19 -24 -45 -34 -59 -10 -13 -19 -31 -19 -39 0
-8 -11 -29 -24 -46 -13 -17 -27 -42 -31 -56 -4 -14 -15 -36 -24 -50 -9 -14
-25 -41 -34 -60 -10 -19 -25 -47 -33 -62 -13 -24 -13 -32 -2 -55 9 -18 21 -27
33 -26 35 3 129 32 170 53 21 11 51 20 65 20 14 0 36 7 48 16 12 8 48 22 79
30 31 8 62 19 68 24 6 5 36 16 66 24 30 7 68 21 84 29 17 9 50 23 75 31 114
37 148 49 190 66 25 11 61 22 80 26 19 3 53 17 76 30 22 13 51 24 63 24 12 0
44 11 71 25 27 14 60 25 72 25 13 0 37 9 55 19 17 11 49 23 70 27 21 4 58 17
83 30 25 13 54 24 65 24 11 0 43 12 70 25 28 14 58 25 68 25 10 0 40 11 67 25
27 14 57 25 67 25 10 0 41 11 68 25 28 13 56 25 64 25 7 0 39 11 70 23 31 13
79 32 106 41 114 40 177 65 188 74 7 6 30 13 52 17 22 4 61 18 87 31 26 13 57
24 69 24 12 0 36 8 53 19 17 10 52 23 78 30 27 6 63 20 80 31 18 11 42 20 53
20 11 0 44 11 73 25 30 14 62 25 72 25 9 0 38 11 64 25 26 14 55 25 64 25 9 0
46 14 80 30 35 17 71 30 81 30 9 0 32 8 51 19 19 10 59 24 88 31 28 6 55 16
58 21 3 5 31 16 62 25 31 9 73 25 92 35 19 11 44 19 55 19 11 0 37 9 57 20 20
11 58 25 85 32 26 6 62 19 78 29 17 9 46 20 65 24 19 4 49 15 65 25 17 9 45
20 64 24 19 3 52 15 75 25 23 11 61 26 86 34 109 37 167 58 190 71 14 7 49 19
78 26 28 6 55 16 58 21 3 5 31 16 62 25 31 9 73 25 92 35 19 11 43 19 54 19
10 0 42 11 70 24 49 22 101 42 196 72 25 8 61 23 80 33 19 10 51 22 70 26 19
4 53 16 75 26 22 10 60 24 85 32 115 38 168 58 201 77 20 11 47 20 60 20 13 0
47 12 74 25 28 14 57 25 66 25 9 0 36 11 60 23 24 13 62 27 84 31 21 4 55 16
74 26 20 11 57 26 84 34 26 9 68 23 95 32 26 8 63 23 83 34 19 10 53 22 74 26
21 4 53 15 69 25 17 9 51 23 76 29 25 7 50 16 55 20 6 4 37 16 70 25 33 10 76
26 95 36 19 11 44 19 55 19 11 0 41 11 67 25 26 14 56 25 66 25 10 0 39 11 63
23 24 13 62 27 84 31 22 4 51 14 65 22 23 13 84 36 190 70 25 8 61 23 81 34
19 10 53 22 74 26 22 4 60 18 84 31 24 12 52 23 63 23 10 0 36 9 56 19 20 10
57 24 81 31 24 6 60 20 80 31 20 10 44 19 54 19 10 0 40 11 67 25 27 14 57 25
66 25 9 0 42 11 73 24 31 13 76 31 101 39 25 8 77 27 115 42 39 15 90 33 115
41 25 8 63 24 85 34 22 10 60 24 85 30 25 7 50 16 56 21 5 4 36 15 68 23 32 9
64 20 71 26 11 9 66 29 215 79 30 10 69 26 85 35 17 9 39 16 50 16 11 0 43 11
70 25 28 13 57 25 65 25 8 0 39 11 68 25 90 42 118 31 148 -58 8 -25 24 -62
35 -83 10 -21 19 -44 19 -51 0 -6 11 -33 25 -59 14 -26 25 -54 25 -63 0 -9 11
-34 25 -56 13 -22 25 -49 25 -60 0 -11 12 -38 25 -60 14 -22 25 -47 25 -56 0
-9 11 -37 25 -63 14 -26 25 -52 25 -59 0 -7 14 -39 30 -72 16 -33 30 -67 30
-75 0 -8 9 -28 20 -45 11 -16 20 -37 20 -45 0 -8 14 -42 30 -75 16 -33 30 -65
30 -72 0 -7 11 -33 25 -59 14 -26 25 -54 25 -63 0 -9 12 -34 25 -56 14 -22 25
-48 25 -58 0 -10 11 -39 25 -65 14 -26 25 -54 25 -62 0 -8 8 -29 18 -45 11
-17 27 -53 36 -82 12 -36 28 -60 54 -80 l37 -28 785 -3 c432 -1 795 0 807 3
13 3 30 19 38 36 19 36 14 72 -20 139 -46 92 -74 156 -81 180 -4 14 -15 37
-25 52 -11 14 -19 33 -19 41 0 8 -11 34 -24 59 -13 25 -27 59 -30 76 -4 17
-14 36 -21 42 -8 6 -19 28 -26 48 -6 20 -21 60 -34 87 -12 28 -33 74 -46 104
-13 30 -36 79 -51 109 -16 29 -28 58 -28 64 0 5 -14 39 -31 76 -17 37 -36 81
-43 97 -8 17 -28 60 -45 96 -17 37 -31 70 -31 75 0 8 -9 28 -75 169 -13 28
-38 84 -55 125 -31 73 -51 117 -104 231 -14 31 -26 59 -26 63 0 8 -52 122 -81
177 -10 20 -19 43 -19 50 0 8 -14 41 -30 74 -17 33 -30 65 -30 71 0 6 -7 17
-14 24 -8 6 -20 28 -26 48 -6 20 -22 60 -34 87 -65 138 -76 163 -76 170 0 4
-12 33 -26 64 -14 31 -34 74 -44 96 -9 22 -31 69 -48 105 -17 36 -36 82 -42
102 -6 20 -18 42 -26 48 -7 7 -14 20 -14 29 0 9 -19 54 -43 101 -35 70 -47 85
-72 92 -34 9 -106 -9 -170 -42 -21 -11 -46 -20 -55 -20 -8 0 -37 -12 -65 -25
-27 -14 -59 -25 -70 -25 -11 0 -34 -9 -52 -19 -17 -11 -51 -25 -75 -31 -24 -7
-57 -20 -74 -31 -17 -10 -39 -19 -49 -19 -10 0 -43 -11 -74 -24 -126 -52 -168
-68 -206 -77 -22 -6 -53 -18 -70 -28 -16 -11 -46 -22 -65 -26 -19 -4 -46 -14
-59 -22 -14 -9 -45 -21 -70 -28 -49 -14 -130 -45 -196 -76 -22 -10 -65 -27
-95 -37 -92 -32 -123 -44 -181 -68 -31 -13 -63 -24 -71 -24 -8 0 -35 -11 -60
-24 -25 -13 -60 -27 -79 -31 -19 -4 -50 -15 -69 -25 -19 -9 -50 -20 -68 -23
-19 -4 -46 -15 -60 -26 -15 -10 -44 -21 -65 -25 -21 -4 -59 -18 -84 -32 -25
-13 -53 -24 -62 -24 -9 0 -38 -12 -66 -25 -27 -14 -57 -25 -65 -25 -8 0 -36
-11 -62 -25 -26 -14 -57 -25 -70 -25 -13 0 -37 -9 -55 -19 -17 -11 -51 -25
-75 -31 -23 -7 -60 -21 -80 -31 -20 -10 -45 -19 -55 -19 -11 0 -37 -9 -58 -20
-22 -12 -64 -28 -92 -36 -29 -8 -55 -19 -58 -24 -3 -5 -25 -14 -48 -20 -23 -6
-60 -19 -82 -30 -22 -10 -60 -25 -85 -33 -25 -9 -76 -27 -115 -42 -38 -15 -95
-36 -125 -47 -30 -11 -73 -28 -96 -39 -22 -10 -47 -19 -55 -19 -8 0 -36 -11
-64 -25 -27 -13 -57 -25 -65 -25 -8 0 -37 -11 -65 -25 -27 -13 -58 -25 -67
-25 -10 0 -41 -11 -70 -24 -80 -36 -158 -66 -208 -81 -25 -7 -63 -23 -85 -34
-21 -12 -47 -21 -57 -21 -10 0 -37 -8 -60 -19 -83 -36 -153 -64 -198 -76 -25
-8 -63 -23 -85 -34 -21 -12 -46 -21 -55 -21 -8 0 -37 -12 -65 -25 -27 -14 -58
-25 -69 -25 -10 0 -35 -9 -55 -20 -34 -18 -96 -42 -201 -76 -25 -8 -61 -23
-80 -33 -19 -10 -51 -22 -70 -26 -19 -4 -48 -15 -65 -25 -16 -10 -46 -21 -65
-25 -19 -4 -51 -16 -70 -26 -19 -11 -42 -19 -51 -19 -8 0 -38 -11 -65 -25 -27
-14 -56 -25 -64 -25 -8 0 -44 -14 -78 -30 -35 -17 -72 -30 -82 -30 -11 0 -40
-11 -66 -25 -26 -14 -56 -25 -68 -25 -12 0 -35 -9 -52 -19 -17 -10 -46 -22
-65 -26 -19 -4 -56 -18 -84 -30 -50 -22 -71 -30 -175 -67 -30 -10 -71 -27 -90
-37 -19 -10 -52 -21 -74 -24 -21 -4 -46 -13 -55 -21 -9 -8 -40 -21 -70 -30
-30 -9 -64 -22 -75 -29 -12 -8 -38 -17 -59 -21 -21 -4 -59 -18 -84 -32 -25
-13 -55 -24 -67 -24 -12 0 -35 -9 -52 -19 -17 -10 -46 -22 -64 -26 -18 -4 -56
-18 -84 -31 -28 -13 -61 -24 -72 -24 -12 0 -32 -8 -45 -18 -13 -11 -44 -24
-69 -30 -25 -6 -63 -20 -85 -32 -21 -11 -47 -20 -58 -20 -10 0 -39 -11 -65
-25 -26 -14 -54 -25 -62 -25 -8 0 -37 -11 -65 -23 -27 -13 -72 -32 -100 -41
-27 -10 -66 -24 -85 -31 -91 -34 -109 -17 -66 65 14 27 26 58 26 67 0 10 9 33
20 51 11 18 20 39 20 46 0 8 14 40 30 71 17 31 30 64 30 71 0 8 11 36 25 62
14 26 25 54 25 62 0 8 11 33 25 55 13 22 25 47 25 55 0 8 14 42 30 75 16 33
30 67 30 75 0 8 9 30 20 48 11 18 20 40 20 50 1 9 14 42 30 72 17 30 30 62 30
70 0 8 9 30 20 48 11 18 20 38 20 45 0 6 14 39 30 72 16 33 30 70 30 81 0 12
9 32 19 46 11 13 24 42 30 63 6 22 17 49 24 60 8 11 20 38 27 60 7 22 21 54
31 71 11 17 19 38 19 46 0 7 9 31 20 53 11 21 25 54 31 74 6 20 20 50 30 67
11 17 19 38 19 46 0 8 11 35 24 60 13 25 27 60 31 79 4 19 16 45 26 58 11 13
19 31 19 40 0 9 13 43 30 76 16 33 30 68 30 78 0 11 9 31 19 46 11 15 23 40
27 57 4 16 17 49 30 74 13 25 24 51 24 58 0 7 11 34 25 60 14 26 25 53 25 60
0 7 11 34 25 60 14 26 25 54 25 62 0 8 11 33 25 55 13 22 25 47 25 56 0 9 11
37 25 63 14 26 25 52 25 59 0 7 14 39 30 72 16 33 30 67 30 75 0 8 8 29 19 45
10 17 23 46 30 66 6 20 20 53 31 74 11 22 20 46 20 55 0 8 9 29 20 45 11 17
20 37 20 46 0 9 11 36 23 60 13 24 30 62 37 84 7 22 21 53 31 70 11 16 19 39
19 50 0 11 11 38 25 60 13 22 25 47 25 55 0 8 14 42 30 75 16 33 30 67 30 75
0 8 9 29 20 45 11 17 20 37 20 46 0 9 11 37 25 63 14 26 25 52 25 59 0 7 14
39 30 72 16 33 30 65 30 72 0 7 11 33 25 59 14 26 25 54 25 63 0 9 12 34 25
56 14 22 25 49 25 60 0 11 12 38 25 60 14 22 25 47 25 55 0 8 11 36 25 62 14
26 25 53 25 61 0 8 11 34 24 59 13 24 27 55 31 69 3 13 15 42 25 64 48 103 80
183 80 197 0 8 9 27 20 41 11 14 20 32 20 39 0 8 11 37 25 64 14 27 30 67 36
89 6 22 17 47 24 55 7 8 16 26 19 40 7 27 44 115 82 196 13 28 24 57 24 64 0
13 31 85 76 173 13 26 24 53 24 60 0 6 14 39 30 72 16 33 30 65 30 72 0 7 11
33 25 59 14 26 25 54 25 63 0 9 12 34 25 56 14 22 25 49 25 60 0 11 11 38 25
60 13 22 25 47 25 55 0 8 12 38 25 65 14 28 25 55 25 61 0 7 14 38 30 69 17
31 30 63 30 71 0 7 9 28 20 46 11 18 20 40 20 48 0 8 9 33 21 55 12 21 27 59
34 83 8 24 20 51 28 60 8 10 20 33 25 52 15 53 49 132 121 292 17 37 31 73 31
80 0 7 9 27 19 45 11 17 25 51 31 74 7 24 20 54 31 67 10 14 19 32 19 41 0 9
9 34 20 56 11 21 25 54 31 74 6 20 20 50 30 67 11 17 19 38 19 45 0 8 13 41
30 74 16 33 30 65 30 72 0 7 11 33 25 59 14 26 25 53 25 60 0 7 11 34 25 60
14 26 25 53 25 60 0 7 11 34 25 60 14 26 25 54 25 63 0 9 12 34 25 56 14 22
25 47 25 55 0 8 11 36 25 62 14 26 25 52 25 59 0 7 11 35 25 63 33 69 85 192
85 203 0 4 11 30 25 57 14 27 25 56 25 64 0 7 9 26 19 41 10 14 24 44 30 66 6
22 20 54 31 70 11 17 20 39 20 50 0 11 11 38 25 60 13 22 25 47 25 55 0 8 14
42 30 75 16 33 30 66 30 73 0 8 9 27 20 42 11 16 23 43 27 62 3 18 14 44 25
57 10 13 18 33 18 44 0 11 11 39 24 61 13 23 27 57 31 76 4 19 16 49 27 67 27
45 22 107 -9 111 -16 2 -26 -5 -39 -30z"/>
<path d="M9780 13151 c-20 -4 -40 -10 -46 -14 -9 -5 -41 -67 -94 -182 -10 -22
-33 -70 -49 -106 -17 -36 -31 -71 -31 -78 0 -7 -9 -29 -19 -49 -28 -53 -81
-169 -81 -178 0 -4 -12 -32 -26 -63 -44 -94 -62 -133 -100 -221 -36 -85 -69
-159 -105 -236 -10 -23 -19 -44 -19 -48 0 -7 -34 -84 -80 -181 -11 -22 -33
-74 -50 -115 -17 -41 -39 -93 -50 -115 -10 -22 -33 -74 -50 -115 -18 -41 -43
-98 -56 -126 -13 -28 -24 -54 -24 -58 0 -4 -14 -37 -31 -74 -17 -37 -39 -85
-49 -107 -10 -22 -32 -74 -50 -115 -17 -41 -40 -93 -50 -115 -42 -89 -80 -175
-80 -183 0 -4 -9 -25 -19 -47 -11 -22 -31 -65 -44 -95 -13 -30 -38 -85 -56
-122 -17 -37 -31 -72 -31 -78 0 -7 -11 -33 -24 -59 -29 -58 -54 -113 -101
-221 -20 -47 -45 -103 -56 -126 -10 -23 -19 -44 -19 -48 0 -7 -34 -84 -80
-181 -11 -22 -33 -74 -51 -115 -17 -41 -39 -93 -49 -115 -11 -22 -35 -78 -55
-125 -46 -108 -56 -131 -93 -210 -17 -36 -45 -99 -62 -140 -17 -41 -39 -93
-50 -115 -44 -93 -80 -174 -80 -180 0 -6 -36 -89 -70 -160 -11 -22 -33 -74
-50 -115 -30 -73 -45 -107 -109 -240 -17 -36 -31 -69 -31 -74 0 -5 -12 -34
-26 -65 -14 -31 -34 -74 -44 -96 -28 -61 -64 -142 -100 -225 -18 -41 -43 -98
-56 -125 -13 -28 -24 -54 -24 -58 0 -8 -31 -78 -80 -182 -46 -97 -57 -132 -48
-148 18 -34 108 -15 268 55 14 6 54 22 90 35 67 26 150 57 255 98 33 13 90 35
128 49 222 85 314 121 402 156 124 49 298 116 391 149 28 11 59 24 70 30 10 6
44 19 74 30 30 10 85 31 122 45 38 15 96 37 130 49 35 13 73 29 86 36 13 7 42
18 65 26 23 8 72 25 109 40 38 14 96 36 130 49 35 13 99 38 143 56 44 17 107
41 140 52 33 11 65 24 70 28 6 5 35 17 65 28 30 11 87 32 125 47 39 14 96 35
128 46 32 10 68 24 80 31 20 11 65 28 206 79 30 10 59 23 65 28 6 4 25 11 41
15 17 4 48 16 70 26 22 10 65 27 95 38 54 19 131 48 258 98 34 13 91 35 127
49 62 24 105 41 260 100 39 15 95 36 125 46 30 11 64 24 74 30 18 11 57 25
181 68 33 12 68 26 78 32 10 6 49 21 85 34 88 31 207 76 527 200 36 14 94 36
130 50 157 61 203 78 255 96 30 11 64 24 74 30 10 6 42 19 70 29 28 10 78 28
111 40 33 12 78 30 101 41 22 10 46 19 54 19 8 0 32 9 54 19 23 11 66 28 96
39 30 11 85 31 123 46 37 14 96 37 132 51 36 14 94 36 130 50 36 14 94 36 130
50 36 14 93 36 127 48 35 13 77 31 95 40 18 9 40 17 50 17 10 0 36 9 58 21 21
12 57 27 79 34 23 7 77 28 121 45 117 46 235 90 275 102 19 6 51 19 70 29 19
10 55 25 80 33 25 8 75 26 112 40 38 15 96 37 130 50 35 13 79 30 98 39 19 8
73 29 120 47 154 57 194 72 251 96 31 13 63 24 70 24 8 0 30 8 49 19 19 10 61
26 92 35 31 9 59 20 62 25 3 5 30 14 58 21 29 7 67 20 83 30 17 10 46 21 65
25 19 4 54 18 77 31 23 13 50 24 61 24 10 0 34 11 53 25 19 13 49 31 67 39 69
32 11 59 -72 33 -28 -8 -77 -18 -109 -22 -32 -4 -77 -15 -100 -26 -23 -10 -54
-19 -70 -19 -15 0 -62 -11 -105 -24 -42 -14 -104 -32 -137 -40 -33 -8 -80 -21
-105 -29 -25 -8 -67 -19 -95 -25 -66 -12 -179 -41 -235 -59 -25 -8 -76 -21
-115 -29 -38 -8 -97 -23 -130 -33 -67 -22 -165 -47 -240 -63 -27 -5 -77 -19
-110 -30 -33 -10 -96 -28 -140 -38 -176 -41 -222 -52 -265 -67 -25 -8 -76 -21
-113 -29 -38 -7 -98 -22 -135 -33 -112 -33 -184 -52 -257 -67 -38 -8 -94 -23
-123 -34 -29 -11 -65 -20 -81 -20 -15 0 -60 -11 -99 -25 -39 -14 -81 -25 -93
-25 -11 0 -53 -11 -92 -24 -40 -14 -94 -28 -122 -32 -27 -4 -70 -15 -95 -24
-25 -10 -65 -21 -90 -25 -25 -4 -65 -13 -89 -21 -63 -21 -62 -21 -163 196 -17
36 -37 79 -44 95 -7 17 -38 83 -69 148 -30 64 -55 120 -55 123 0 3 -13 33 -29
67 -91 194 -119 255 -126 277 -4 14 -15 39 -25 55 -10 17 -34 68 -55 115 -21
47 -57 127 -81 178 -24 51 -44 95 -44 98 0 3 -14 35 -31 72 -32 68 -56 120
-104 227 -15 33 -31 68 -36 78 -19 36 -27 54 -59 127 -19 41 -50 111 -71 155
-20 44 -56 123 -79 175 -22 52 -45 103 -50 113 -21 37 -29 54 -60 127 -18 41
-51 113 -73 160 -21 47 -55 121 -74 165 -19 44 -45 101 -59 126 -13 26 -24 52
-24 59 0 6 -8 24 -19 38 -10 15 -24 45 -31 67 -7 22 -18 47 -25 55 -7 8 -16
26 -20 40 -13 42 -64 137 -82 151 -13 12 -142 14 -727 16 -391 0 -727 -2 -746
-6z m738 -1783 c5 -7 15 -31 21 -53 6 -22 17 -49 24 -60 8 -11 20 -38 27 -60
7 -22 21 -53 31 -70 11 -16 19 -36 19 -43 0 -7 13 -41 28 -75 16 -34 38 -84
50 -112 11 -27 35 -84 52 -125 18 -41 41 -97 53 -125 11 -27 33 -78 49 -112
15 -34 28 -68 28 -75 0 -7 8 -27 19 -43 10 -17 24 -48 31 -70 7 -22 21 -54 31
-71 11 -17 19 -38 19 -45 0 -8 8 -30 19 -49 10 -19 22 -46 26 -60 4 -14 20
-52 35 -85 29 -63 50 -113 100 -235 52 -125 67 -162 101 -237 17 -40 29 -79
26 -87 -8 -21 -68 -45 -154 -62 -40 -7 -89 -20 -108 -28 -20 -9 -64 -20 -98
-26 -34 -7 -89 -20 -122 -31 -67 -21 -147 -41 -278 -69 -48 -11 -96 -24 -107
-30 -11 -6 -54 -17 -97 -26 -43 -9 -86 -20 -95 -25 -10 -5 -57 -18 -105 -28
-48 -11 -115 -27 -148 -36 -327 -91 -479 -127 -502 -118 -24 9 -13 45 63 211
13 29 24 57 24 63 0 6 13 38 28 72 31 67 54 119 102 237 17 41 39 93 50 115
11 22 26 60 35 84 8 24 19 49 24 55 5 6 14 29 21 51 7 22 21 56 31 75 11 19
19 39 19 45 0 5 11 32 24 60 14 27 39 84 56 125 52 126 72 173 100 235 15 33
31 71 35 85 4 14 16 41 26 60 11 19 19 39 19 44 0 5 11 32 24 60 27 58 61 136
106 246 17 41 42 98 56 127 13 28 24 57 24 63 0 6 9 28 20 48 29 54 80 178 80
195 0 28 38 38 58 15z"/>
</g>
</svg>
