
<svg xmlns="http://www.w3.org/2000/svg" width="375" viewBox="0 0 375 375" height="375" version="1.0"><defs><clipPath id="a"><path d="M55 48.40625H320V199H55zm0 0"/></clipPath><clipPath id="b"><path d="M2e2 128H360.675781v90H2e2zm0 0"/></clipPath><clipPath id="c"><path d="M14.175781 128H174v90H14.175781zm0 0"/></clipPath><clipPath id="d"><path d="M77 224H297V326.65625H77zm0 0"/></clipPath></defs><g clip-path="url(#a)"><path fill="#ffffff" d="M187.394531 82.816406l50.800781 88.054688-32.839843 13.234375-17.960938-31.132813L169.429688 184.105469l-32.839844-13.234375zm0 115.296875L319.730469 144.773438C301.699219 88.855469 249.273438 48.402344 187.394531 48.402344c-61.878906.0-114.304687 40.453125-132.335937 96.371094l132.335937 53.339843"/></g><g clip-path="url(#b)"><path fill="#ffffff" d="M325.820312 174.566406C325.277344 168.710938 324.382812 162.964844 323.140625 157.347656l37.203125-28.945312-159.386719 89.59375 124.863281-43.429688"/></g><g clip-path="url(#c)"><path fill="#ffffff" d="M48.96875 174.5625l124.859375 43.433594-159.382813-89.59375 37.203126 28.945312C50.40625 162.964844 49.511719 168.710938 48.96875 174.5625"/></g><g clip-path="url(#d)"><path fill="#ffffff" d="M256.867188 273.378906 228.464844 224.15625l-41.070313 20.648438-41.070312-20.652344L117.921875 273.378906H77.976562C103.429688 305.820312 142.980469 326.660156 187.394531 326.660156c44.414063.0 83.964844-20.83984399999997 109.417969-53.28125H256.867188"/></g><path fill="#ffffff" d="M259.839844 208.378906 297.113281 272.988281C315.484375 249.402344 326.433594 219.746094 326.433594 187.53125 326.433594 183.363281 326.238281 179.246094 325.878906 175.175781L259.839844 208.378906"/><path fill="#ffffff" d="M114.953125 208.378906 48.910156 175.175781C48.550781 179.246094 48.355469 183.363281 48.355469 187.53125c0 32.214844 10.949219 61.871094 29.316406 85.45703099999997L114.953125 208.378906"/></svg>
